<svg width="50" height="50" fill="none" xmlns="http://www.w3.org/2000/svg"><path d="M44.57 6.263h-4.747V1.515C39.823.68 39.143 0 38.308 0h-1.565c-.836 0-1.516.68-1.516 1.515v4.748h-21.97c-.835 0-1.515.68-1.515 1.515v6.843L5.164 8.043a.732.732 0 00-1.25.518v29.747c0 .404.328.732.732.732h7.096v2.4a.732.732 0 101.465 0v-2.4h21.187a.732.732 0 00.518-1.25L13.207 16.086V7.777a.05.05 0 01.05-.05h21.97V25c0 .068.01.136.029.201l1.565 5.48a.732.732 0 001.409 0l1.565-5.48a.733.733 0 00.029-.201V11.692a.732.732 0 10-1.465 0v11.793h-1.667V4.596h1.667V8.56a.732.732 0 101.465 0v-.833h4.747a.05.05 0 01.05.05v36.794a3.97 3.97 0 01-3.965 3.964 3.98 3.98 0 01-3.924-3.4 1.515 1.515 0 00-1.494-1.297H8.64c-.459 0-.89.204-1.182.558a1.467 1.467 0 00-.313 1.216A5.436 5.436 0 0012.475 50h28.181a5.435 5.435 0 005.43-5.43V7.779c0-.836-.68-1.515-1.515-1.515zM32.627 37.576H5.379V10.329l27.247 27.247zm5.718-12.626l-.819 2.864-.818-2.864h1.637zm.015-21.819h-1.667V1.515a.05.05 0 01.05-.05h1.566a.05.05 0 01.05.05v1.616zM12.475 48.535a3.97 3.97 0 01-3.892-3.198c.002-.008.025-.034.057-.034h26.598c.022 0 .04.016.043.037a5.404 5.404 0 001.676 3.195H12.475z" fill="#E69A37"/><path d="M23.952 33.093l-14.09-14.09a.733.733 0 00-1.251.517v14.091c0 .405.328.732.732.732h14.091a.732.732 0 00.518-1.25zm-12.21-.214h-1.666v-11.59l1.666 1.666v9.924zm1.465 0v-8.46l8.46 8.46h-8.46z" fill="#E69A37"/></svg>