<svg width="50" height="50" fill="none" xmlns="http://www.w3.org/2000/svg"><path d="M48.387 40.412v-7.347c0-1.05-.676-1.938-1.613-2.271v-.955a2.422 2.422 0 00-2.42-2.42h-9.018a2.416 2.416 0 00-2.271-1.613v-10.09a5.654 5.654 0 00-2.851-4.905l-15.46-8.808A4.015 4.015 0 0011.29 0a4.036 4.036 0 00-4.03 4.006h-.002l-.783 23.492a4.038 4.038 0 00-3.25 3.954c0 .866.281 1.665.75 2.324L1.68 36.452A6.981 6.981 0 000 40.992a6.93 6.93 0 002.044 4.934l2.42 2.42A5.61 5.61 0 008.456 50h8.48v-1.613h-1.613v-4.42l-2.77-2.215a4.005 4.005 0 01-1.49-2.704l-.578-5.204c.5-.671.805-1.494.805-2.392 0-1.25-.583-2.355-1.48-3.096l3.75-20.995c.142-.097.268-.213.397-.328l8.274 8.274a3.183 3.183 0 00-.457 1.629 3.223 3.223 0 002.42 3.11v5.76h-.29c-1.15 0-2.148.818-2.373 1.945l-2.16 10.8-.011 1.856a5.62 5.62 0 00-1.618 3.948A5.652 5.652 0 0023.387 50h20.968A5.652 5.652 0 0050 44.355a5.622 5.622 0 00-1.613-3.943zM7.258 29.032a2.422 2.422 0 012.42 2.42 2.422 2.422 0 01-2.42 2.419 2.422 2.422 0 01-2.42-2.42 2.422 2.422 0 012.42-2.419zm4.287 13.98l2.165 1.73v.42h-1.613v1.612h1.613v1.613H8.456a4.01 4.01 0 01-2.852-1.181l-2.42-2.42a5.367 5.367 0 01-.279-7.285l2.25-2.625c.614.378 1.33.608 2.103.608A3.98 3.98 0 009 35.072l.461 4.154a5.607 5.607 0 002.084 3.785zM8.312 27.576c-.076-.021-.146-.054-.222-.07l.678-20.355a3.988 3.988 0 002.522.913c.177 0 .345-.03.516-.053L8.312 27.577zM11.29 6.452a2.422 2.422 0 01-2.419-2.42 2.422 2.422 0 012.42-2.42 2.422 2.422 0 012.419 2.42 2.422 2.422 0 01-2.42 2.42zm24.194 25.806h1.613v-1.613h-1.613v-1.613h8.87c.445 0 .807.361.807.807v.806H38.71v1.613h7.258c.444 0 .806.361.806.806v6.198a5.607 5.607 0 00-2.42-.552h-8.87v-6.452zM14.934 5.73c.223-.477.354-1 .374-1.555l14.107 8.037a4.039 4.039 0 012.037 3.503v10.091h-5.646v-5.76a3.223 3.223 0 002.42-3.11A3.23 3.23 0 0025 13.71a3.18 3.18 0 00-1.628.457L14.935 5.73zm8.453 11.206a1.614 1.614 0 013.226 0 1.614 1.614 0 01-3.226 0zm-2.42 21.853l2.145-10.721a.809.809 0 01.791-.649h9.162c.444 0 .806.362.806.807V38.71H23.387a5.61 5.61 0 00-2.42.552v-.473zm23.388 9.598H23.387a4.037 4.037 0 01-4.032-4.032 4.037 4.037 0 014.032-4.032h20.968a4.037 4.037 0 014.032 4.032 4.037 4.037 0 01-4.032 4.032z" fill="#E69A37"/><path d="M43.548 41.129c-.967 0-1.827.437-2.419 1.114a3.206 3.206 0 00-2.42-1.114c-.967 0-1.827.437-2.419 1.114a3.206 3.206 0 00-2.42-1.114c-.967 0-1.826.437-2.418 1.114a3.206 3.206 0 00-2.42-1.114 3.21 3.21 0 00-2.42 1.114 3.206 3.206 0 00-2.418-1.114 3.23 3.23 0 00-3.226 3.226 3.229 3.229 0 003.226 3.226c.967 0 1.827-.438 2.419-1.115a3.206 3.206 0 002.42 1.115c.967 0 1.827-.438 2.419-1.115a3.206 3.206 0 002.419 1.115 3.21 3.21 0 002.42-1.115 3.206 3.206 0 002.419 1.115c.967 0 1.827-.438 2.419-1.115a3.206 3.206 0 002.42 1.115 3.229 3.229 0 003.225-3.226 3.23 3.23 0 00-3.226-3.226zm-19.355 4.839a1.614 1.614 0 01.001-3.226 1.614 1.614 0 01-.001 3.226zm4.84 0c-.89 0-1.614-.724-1.614-1.613a1.614 1.614 0 111.613 1.613zm4.838 0a1.614 1.614 0 111.613-1.613c0 .89-.724 1.613-1.613 1.613zm4.839 0a1.614 1.614 0 111.613-1.613c0 .89-.724 1.613-1.613 1.613zm4.838 0c-.89 0-1.613-.724-1.613-1.613a1.614 1.614 0 111.613 1.613zM33.065 29.032h-8.726l-.937 4.68-.015 1.772h9.678v-6.452zm-1.613 4.839h-6.436l.645-3.226h5.79v3.226zm13.709 0h-3.226v1.613h3.226V33.87zm-4.838 0h-3.226v1.613h3.226V33.87z" fill="#E69A37"/></svg>