<svg width="50" height="50" fill="none" xmlns="http://www.w3.org/2000/svg"><path d="M39.808 33.291c1.74 1.264 2.563 4.994 2.734 6.327l1.298 9.79 1.356-.178-1.297-9.801c-.027-.217-.714-5.38-3.28-7.233a13.891 13.891 0 00-2.75-1.423.67.67 0 00-.19-.104l-.565-.2a42.105 42.105 0 00-2.599-.904l-.528-.184a.654.654 0 00-.162-.037 68.388 68.388 0 00-3.359-.963v-1.496a7.77 7.77 0 003.254-6.326v-1.152c.229.083.47.127.71.13a2.066 2.066 0 002.066-2.067v-1.843c0-.5-.184-.983-.516-1.355.22-.351.332-.76.323-1.172v-.787a2.346 2.346 0 00-.508-1.59 1.43 1.43 0 00-.687-.398c-.162-1.867-1.048-7.348-5.775-9.49h-.041A10.3 10.3 0 0025.4.002h-.393a10.869 10.869 0 00-3.765.592h-.032c-5.235 1.925-6.178 7.775-6.326 9.713a1.414 1.414 0 00-.688.398 2.319 2.319 0 00-.547 1.59v.81c-.01.413.101.82.32 1.17-.33.375-.515.857-.515 1.358v1.846c0 1.142.926 2.066 2.066 2.066.243 0 .481-.045.708-.13v1.156a7.782 7.782 0 003.197 6.274v1.537c-2.418.63-4.8 1.395-7.133 2.295h-.03a14.601 14.601 0 00-2.94 1.501c-2.567 1.87-3.252 7.028-3.28 7.233L4.744 49.22l1.356.175 1.296-9.807c.174-1.33.994-5.055 2.713-6.329a10.269 10.269 0 011.73-.927v5.875c-.998.367-2.258 1.395-2.258 3.564v7.552c0 .373.302.678.677.678h29.455a.677.677 0 00.676-.678v-7.54c0-2.169-1.268-3.195-2.26-3.561v-5.875c.59.26 1.15.577 1.678.945zm-4.655-17.664v1.849a.71.71 0 01-1.414 0v-1.849a.71.71 0 111.414 0zM25.933 1.39a8.99 8.99 0 012.414.527V5.35a3.326 3.326 0 01-2.414 1.414V1.39zm-3.77.339a9.701 9.701 0 012.415-.37V6.78a3.323 3.323 0 01-2.414-1.415V1.73zM16.212 17.47a.71.71 0 01-1.414 0v-1.843a.71.71 0 111.414 0v1.843zm-.71-3.913c-.128 0-.253.013-.378.036a.704.704 0 01-.137-.493v-.821a1.086 1.086 0 01.159-.612.123.123 0 01.096-.025h.26a.68.68 0 00.68-.68c0-.315.088-6.328 4.623-8.688V5.53c0 .1.023.199.066.289.047.095 1.152 2.35 4.38 2.35 3.226 0 4.336-2.259 4.38-2.35a.644.644 0 00.062-.289V2.6c3.975 2.537 4.07 8.06 4.07 8.363 0 .375.304.68.677.68h.262c.068 0 .082 0 .095.024.115.189.169.405.158.627v.806a.675.675 0 01-.144.493 2.02 2.02 0 00-1.83.562H16.97a2.045 2.045 0 00-1.463-.593l-.005-.005zm2.066 7.014v-5.06h14.825v5.06a6.435 6.435 0 01-6.44 6.427H24a6.434 6.434 0 01-6.432-6.427zm11.56 7.101v1.003L24.97 33.99l-4.203-5.316v-1.031a7.687 7.687 0 003.232.715h1.952c1.096 0 2.18-.235 3.177-.687zM16.85 30.525a77.983 77.983 0 012.982-.847l5.149 6.51 5.09-6.51c.585.154 1.716.452 3.037.864v7.764H16.834l.015-7.781zm22.187 11.258v6.873h-28.1v-6.873c0-2.047 1.515-2.34 1.677-2.37a.677.677 0 00.584-.671V31.78c.745-.29 1.536-.564 2.305-.813v8.018c0 .375.303.68.678.68h17.626a.68.68 0 00.678-.68V30.98l2.283.8v6.96c0 .34.252.63.587.673.07.009 1.682.25 1.682 2.368z" fill="#E69A37"/><path d="M12.506 40.928h3.66v1.216h-3.66v-1.216zm21.278 0h3.662v1.216h-3.662v-1.216z" fill="#E69A37"/></svg>