<svg width="50" height="50" fill="none" xmlns="http://www.w3.org/2000/svg"><g clip-path="url(#clip0)" fill="#E69A37"><path d="M.158 4.587l3.335 5.835c.112.197.3.34.52.395l3.112.778 10.67 10.67 1.179-1.179L8.137 10.25a.832.832 0 00-.387-.22l-2.99-.75-2.838-4.97 2.434-2.434 4.973 2.842.75 2.989a.83.83 0 00.22.387L21.134 18.93l1.179-1.178-10.67-10.67-.778-3.11a.835.835 0 00-.395-.522L4.635.116a.834.834 0 00-1 .134L.301 3.585a.834.834 0 00-.143 1.002zM34.816 16.43l-18.34 18.339-1.178-1.18 18.34-18.338 1.178 1.178zM13.267 35.418a.833.833 0 00-.715-.405H7.551a.833.833 0 00-.715.405l-2.5 4.168a.834.834 0 000 .858l2.5 4.168c.15.25.422.404.715.404h5.001a.834.834 0 00.715-.404l2.5-4.168a.834.834 0 000-.858l-2.5-4.168zm-1.186 7.931H8.023l-2.001-3.334 2-3.335h4.059l2 3.335-2 3.334z"/><path d="M40.061 20.008a9.97 9.97 0 009.697-12.42.834.834 0 00-1.398-.389l-5.19 5.186-4.116-1.372-1.373-4.116 5.189-5.19a.834.834 0 00-.391-1.4c-5.34-1.352-10.764 1.88-12.116 7.22a9.951 9.951 0 00-.305 2.478c.002.656.07 1.31.203 1.953L12.005 30.214a9.834 9.834 0 00-1.953-.202C4.527 30.012.048 34.49.048 40.014c0 5.524 4.479 10.003 10.004 10.003 5.524 0 10.003-4.479 10.003-10.003a9.815 9.815 0 00-.203-1.953l4.37-4.371 1.912 1.911a.834.834 0 001.179 0l.417-.416a.934.934 0 111.322 1.322l-.417.416a.834.834 0 000 1.18l9.944 9.943a6.728 6.728 0 109.515-9.515L38.15 28.59a.833.833 0 00-1.179 0l-.416.416a.934.934 0 11-1.324-1.32l.001-.002.417-.417a.834.834 0 000-1.178l-1.911-1.912 4.37-4.37a9.86 9.86 0 001.953.202zm3.276 28.343a5.068 5.068 0 01-1.773-.323l6.51-6.511a5.055 5.055 0 01-4.737 6.834zm-9.444-21.666a2.602 2.602 0 003.667 3.663l9.355 9.363c.102.102.197.21.289.319l-7.128 7.127a4.834 4.834 0 01-.318-.288l-9.362-9.363a2.602 2.602 0 00-3.668-3.663l-1.334-1.334 7.165-7.154 1.334 1.33zm3.366-8.384l-18.91 18.907a.835.835 0 00-.22.792 8.391 8.391 0 01-6.063 10.203 8.392 8.392 0 110-16.265.841.841 0 00.792-.22l18.907-18.907a.833.833 0 00.219-.792 8.296 8.296 0 018.55-10.337l-4.396 4.4a.833.833 0 00-.202.852l1.667 5.002a.834.834 0 00.528.527l5.002 1.667c.298.1.629.022.852-.201l4.397-4.397a8.294 8.294 0 01-10.336 8.55.834.834 0 00-.792.219h.005z"/><path d="M43.152 41.926l-1.179 1.179-8.335-8.336 1.178-1.179 8.336 8.336z"/></g><defs><clipPath id="clip0"><path fill="#fff" d="M0 0h50v50H0z"/></clipPath></defs></svg>