<svg width="50" height="50" fill="none" xmlns="http://www.w3.org/2000/svg"><path d="M8.579 24.104c-.83 0-1.612.324-2.2.912a3.123 3.123 0 000 4.403 3.09 3.09 0 002.2.911 3.09 3.09 0 002.2-.91 3.088 3.088 0 00.914-2.2c0-.831-.324-1.614-.914-2.204a3.09 3.09 0 00-2.2-.912zm1.164 4.279a1.635 1.635 0 01-1.164.482c-.44 0-.853-.171-1.163-.481a1.655 1.655 0 01-.001-2.333 1.636 1.636 0 011.164-.482c.44 0 .853.171 1.164.482a1.642 1.642 0 010 2.332zm13.722 11.584a.729.729 0 00-1.033-.002.736.736 0 00.518 1.256.732.732 0 00.52-1.248l-.005-.006z" fill="#E69A37"/><path d="M44.658 27.453h-7.502a.732.732 0 000 1.465h7.502c1.005 0 1.822.926 1.822 2.064v.704H25.358v-2.768h8.397a.732.732 0 100-1.465h-8.631c-.679 0-1.231.572-1.231 1.275v3.147c0 .704.552 1.276 1.23 1.276h7.79a12.697 12.697 0 01-5.948 4.183 4.655 4.655 0 00-4.017-2.309c-1.71 0-3.207.928-4.016 2.306a12.69 12.69 0 01-6.456-4.882 6.483 6.483 0 002.627-5.232c0-1.742-.679-3.38-1.91-4.61a6.499 6.499 0 00-2.22-1.46 12.462 12.462 0 012.227-3.941l6.855 5.713a1.215 1.215 0 00.899.282c.195-.018.378-.08.54-.181l1.002.836c.387.322.857.48 1.325.48.593 0 1.182-.253 1.59-.743l.115-.139 1.413 1.178c.449.375.997.558 1.556.558.69 0 1.394-.28 1.941-.828.45-.45.68-1.062.65-1.724a2.586 2.586 0 00-.924-1.866l-1.414-1.181.115-.138c.354-.423.52-.96.471-1.511a2.05 2.05 0 00-.733-1.402l-1.005-.84a1.225 1.225 0 00-.356-1.395l-2.026-1.69-8.233-6.86a3.204 3.204 0 00-2.358-.736 3.214 3.214 0 00-1.913.85l-2.538-2.12.01-.013A2.28 2.28 0 009.897.528 2.264 2.264 0 008.23.01a2.264 2.264 0 00-1.545.808l-3.59 4.303a2.265 2.265 0 00-.518 1.664 2.27 2.27 0 002.265 2.071c.653 0 1.3-.277 1.751-.815l.001-.001.012-.014 2.538 2.118a3.243 3.243 0 00.128 3.669 17.822 17.822 0 00-3.77 7.65c-.558.3-1.075.682-1.535 1.142a6.475 6.475 0 00-1.912 4.612c0 1.743.68 3.381 1.912 4.614a6.488 6.488 0 003.137 1.737 17.805 17.805 0 003.212 4.374 17.834 17.834 0 007.978 4.616v1.922H13.34a.732.732 0 100 1.465h27.365c.007 0 .018.012.018.02v2.55c0 .008-.011.02-.018.02H5.19c-.007 0-.019-.012-.019-.02v-2.55c0-.008.012-.02.02-.02h4.746a.732.732 0 100-1.465H5.191c-.818 0-1.483.666-1.483 1.484v2.552c0 .818.665 1.484 1.483 1.484h35.513c.818 0 1.483-.666 1.483-1.484v-2.552c0-.818-.665-1.483-1.483-1.483H27.6v-1.92a17.816 17.816 0 007.983-4.62 17.773 17.773 0 003.424-4.79h7.71c.676 0 1.227-.573 1.227-1.276v-.893c0-1.946-1.475-3.529-3.287-3.529zm-15.434-5.556c.236.197.385.499.4.808a.809.809 0 01-.224.622c-.393.393-1.042.581-1.523.18l-1.413-1.178.745-.892.6-.72 1.415 1.18zm-1.561-4.232a.596.596 0 01.212.408.597.597 0 01-.136.44l-3.454 4.142a.613.613 0 01-.852.076l-.954-.797 4.226-5.07.958.8zM13.55 7.105a1.76 1.76 0 011.365-.634c.413 0 .808.141 1.126.408l10.078 8.4-5.306 6.365-10.079-8.4a1.771 1.771 0 01-.226-2.49l3.042-3.649zm-8.08-.004a.817.817 0 01-1.148.102.803.803 0 01-.286-.55.81.81 0 01.184-.594l3.59-4.302a.81.81 0 01.629-.292.8.8 0 01.517.187c.344.288.39.801.103 1.145l-3.59 4.304zm2.074-.2l1.69-2.026 2.517 2.101-1.689 2.026-2.518-2.1zm2.795 7.92l1.737 1.447a14.18 14.18 0 00-2.52 4.499 6.615 6.615 0 00-2.391.082 16.356 16.356 0 013.174-6.028zM5.002 30.795a5.027 5.027 0 01-1.482-3.578 5.02 5.02 0 011.482-3.575 5.027 5.027 0 013.578-1.483 5.02 5.02 0 013.576 1.482 5.02 5.02 0 011.482 3.576 5.027 5.027 0 01-1.482 3.578 5.066 5.066 0 01-7.154 0zm13.292 8.883v1.356c-2.615-.773-5-2.186-6.942-4.128a16.404 16.404 0 01-2.48-3.175 6.538 6.538 0 002.335-.544 14.16 14.16 0 007.192 5.51 4.655 4.655 0 00-.105.981zm7.842 4.803h-6.377v-4.803a3.192 3.192 0 013.188-3.188 3.192 3.192 0 013.189 3.188v4.803zm8.412-7.574a16.353 16.353 0 01-6.947 4.13v-1.359c0-.335-.037-.663-.105-.978a14.166 14.166 0 007.226-5.55h2.638a16.375 16.375 0 01-2.812 3.757z" fill="#E69A37"/></svg>