<svg width="292" height="70" fill="none" xmlns="http://www.w3.org/2000/svg"><path d="M2.9 28.879a3.267 3.267 0 00-2.718 2.817 30.19 30.19 0 00-.007 6.556 3.288 3.288 0 002.728 2.876l3.712.608a28.677 28.677 0 003.562 8.583L7.99 53.37a3.274 3.274 0 00.052 3.953 31.185 31.185 0 002.216 2.438 37.73 37.73 0 002.46 2.237 3.257 3.257 0 003.91.046l3.067-2.2a28.666 28.666 0 008.575 3.562l.61 3.719a3.267 3.267 0 002.817 2.72c.665.074 1.34.126 2.02.154h.1c.608 0 1.193-.234 1.633-.653a2.313 2.313 0 00.715-1.678v-9.35a2.343 2.343 0 00-2.241-2.327c-11.166-.583-19.922-9.807-19.922-20.989 0-11.181 8.756-20.405 19.922-20.988a2.344 2.344 0 002.241-2.334V2.336A2.31 2.31 0 0035.45.658a2.298 2.298 0 00-1.726-.655c-.679.027-1.352.076-2.043.146a3.254 3.254 0 00-2.8 2.732l-.607 3.715a28.675 28.675 0 00-8.575 3.564l-3.067-2.196a3.267 3.267 0 00-3.94.063 31.767 31.767 0 00-2.426 2.204 28.21 28.21 0 00-2.237 2.462 3.267 3.267 0 00-.056 3.925l2.199 3.07a28.657 28.657 0 00-3.557 8.582l-3.715.61zm5.825.651a26.43 26.43 0 013.834-9.238 1.164 1.164 0 00-.027-1.321l-2.66-3.716a.933.933 0 01-.018-1.104 25.694 25.694 0 012.054-2.257 29.925 29.925 0 012.228-2.035.933.933 0 011.132 0l3.71 2.662c.393.281.919.291 1.322.025a26.382 26.382 0 019.232-3.835c.473-.098.837-.477.916-.954l.733-4.493a.925.925 0 01.763-.792c.617-.064 1.243-.11 1.89-.136l-.027 9.346c-12.42.635-22.164 10.894-22.157 23.331.007 12.437 9.762 22.686 22.183 23.306l-.016 9.35a26.273 26.273 0 01-1.86-.144.916.916 0 01-.774-.779l-.735-4.495a1.167 1.167 0 00-.916-.954A26.389 26.389 0 0120.3 57.46a1.167 1.167 0 00-1.322.025l-3.713 2.665a.917.917 0 01-1.087.03c-.857-.723-1.6-1.4-2.27-2.07a29.448 29.448 0 01-2.033-2.225.946.946 0 010-1.134l2.658-3.713c.282-.392.292-.918.026-1.322a26.417 26.417 0 01-3.834-9.236 1.167 1.167 0 00-.953-.916l-4.491-.736a.945.945 0 01-.786-.83 27.591 27.591 0 01.007-6.037.917.917 0 01.779-.777l4.49-.735c.478-.078.858-.445.954-.92z" fill="#E69A37"/><path d="M66.5 31.503a3.5 3.5 0 00-3.286 2.333H36.166v-3.5h18.667a3.5 3.5 0 003.5-3.5v-6.048a3.5 3.5 0 10-2.334 0v6.048c0 .644-.522 1.167-1.166 1.167H36.166v-3.5H49a1.167 1.167 0 000-2.334H36.165v-2.333h7a3.5 3.5 0 003.5-3.5V9.122a3.5 3.5 0 10-2.333 0v7.214c0 .644-.522 1.167-1.167 1.167h-7.308a2.156 2.156 0 00-2.047-1.13c-9.832.623-17.487 8.779-17.487 18.63 0 9.85 7.655 18.006 17.487 18.629h.136a2.151 2.151 0 001.911-1.13h7.308c.645 0 1.167.523 1.167 1.167v7.215a3.5 3.5 0 102.333 0v-7.215a3.5 3.5 0 00-3.5-3.5h-7v-2.333H49a1.167 1.167 0 100-2.333H36.165v-3.5h18.667c.644 0 1.167.522 1.167 1.166v6.048a3.5 3.5 0 102.333 0V43.17a3.5 3.5 0 00-3.5-3.5H36.166v-3.5h27.048a3.494 3.494 0 103.285-4.666zm-9.334-15.167a1.167 1.167 0 110 2.334 1.167 1.167 0 010-2.334zM45.5 4.67a1.167 1.167 0 110 2.333 1.167 1.167 0 010-2.333zm0 60.666a1.167 1.167 0 110-2.334 1.167 1.167 0 010 2.334zm11.666-11.667a1.167 1.167 0 110-2.333 1.167 1.167 0 010 2.333zm-38.5-18.666c.01-8.564 6.626-15.67 15.167-16.291v32.582c-8.541-.622-15.157-7.727-15.166-16.291zM66.5 36.169a1.167 1.167 0 110-2.333 1.167 1.167 0 010 2.333z" fill="#E69A37"/><path d="M85.416 29.074c.797-.104 1.447-.39 1.95-.858.52-.468.945-1.335 1.274-2.6.33-1.265.494-2.964.494-5.096v-6.11h12.48V33h-4.55V18.31H93.45v2.262c0 4.455-.667 7.679-2.002 9.672-1.335 1.976-3.345 2.964-6.032 2.964v-4.134zm20.803 2.314c-1.456-1.3-2.184-2.981-2.184-5.044 0-2.063.728-3.753 2.184-5.07 1.456-1.317 3.25-1.976 5.382-1.976 2.15 0 3.952.659 5.408 1.976 1.474 1.3 2.21 2.99 2.21 5.07 0 2.063-.728 3.744-2.184 5.044-1.456 1.283-3.258 1.924-5.408 1.924-2.149 0-3.952-.641-5.408-1.924zm2.366-5.044c0 .97.295 1.75.884 2.34.59.59 1.309.884 2.158.884.85 0 1.569-.295 2.158-.884.59-.59.884-1.37.884-2.34 0-.988-.294-1.785-.884-2.392a2.892 2.892 0 00-2.158-.91c-.849 0-1.568.303-2.158.91-.589.607-.884 1.404-.884 2.392zM121.471 33V19.61h9.438v3.77h-4.94V33h-4.498zm12.576-1.612c-1.456-1.3-2.184-2.981-2.184-5.044 0-2.063.728-3.753 2.184-5.07 1.456-1.317 3.25-1.976 5.382-1.976 2.15 0 3.952.659 5.408 1.976 1.474 1.3 2.21 2.99 2.21 5.07 0 2.063-.728 3.744-2.184 5.044-1.456 1.283-3.258 1.924-5.408 1.924-2.149 0-3.952-.641-5.408-1.924zm2.366-5.044c0 .97.295 1.75.884 2.34.59.59 1.309.884 2.158.884.85 0 1.569-.295 2.158-.884.59-.59.884-1.37.884-2.34 0-.988-.294-1.785-.884-2.392a2.892 2.892 0 00-2.158-.91c-.849 0-1.568.303-2.158.91-.589.607-.884 1.404-.884 2.392zM152.085 33v-9.62h-4.056v-3.77h12.636v3.77h-4.082V33h-4.498zm10.468 0V19.61h4.238v5.902c0 .433-.017.875-.052 1.326h.052c.104-.26.347-.702.728-1.326l3.718-5.902h4.368V33h-4.238v-5.85c0-.555.017-1.005.052-1.352h-.052c-.052.139-.295.58-.728 1.326L166.921 33h-4.368zm16.072 0V19.61h12.974V33h-4.498v-9.62h-3.978V33h-4.498z" fill="#000"/><path d="M86.616 57V45.752h1.104v8.096l-.096 1.52h.032c.395-.661.72-1.179.976-1.552l5.696-8.064H95.4V57h-1.104v-8.096l.096-1.52h-.032c-.373.64-.688 1.147-.944 1.52L87.688 57h-1.072zm11.602 0v-8.048h1.088v3.44h4.704v-3.44h1.088V57h-1.088v-3.648h-4.704V57h-1.088zm8.493 0l2.72-4.112v-.032l-2.464-3.904h1.184l2.176 3.456h1.296v-3.456h1.056v3.456h1.296l2.176-3.456h1.2l-2.464 3.904v.032l2.72 4.112h-1.28l-2.352-3.632h-1.296V57h-1.056v-3.632h-1.28L107.975 57h-1.264zm12.507 0v-8.048h1.056v5.28c0 .736-.016 1.136-.048 1.2h.032c.043-.075.32-.475.832-1.2l3.952-5.28h1.04V57h-1.072v-5.776c.011-.181.021-.336.032-.464.011-.139.016-.213.016-.224h-.032c0 .021-.048.096-.144.224a8.475 8.475 0 01-.352.48c-.139.192-.245.347-.32.464L120.258 57h-1.04zm9.453 0v-8.048h1.088v3.44h4.704v-3.44h1.088V57h-1.088v-3.648h-4.704V57h-1.088zm9.469 0v-8.048h1.056v5.28c0 .736-.016 1.136-.048 1.2h.032c.042-.075.32-.475.832-1.2l3.952-5.28h1.04V57h-1.072v-5.776c.01-.181.021-.336.032-.464l.016-.224h-.032c0 .021-.048.096-.144.224a9.004 9.004 0 01-.352.48 9.38 9.38 0 00-.32.464L139.18 57h-1.04zm9.453 3.2V48.952h1.04v.848l-.048.624h.032a2.71 2.71 0 011.104-1.216 3.25 3.25 0 011.696-.448c1.077 0 1.931.39 2.56 1.168.629.768.944 1.781.944 3.04 0 1.27-.336 2.293-1.008 3.072-.672.768-1.536 1.152-2.592 1.152a2.995 2.995 0 01-1.552-.416 3.034 3.034 0 01-1.104-1.184h-.032c.032.192.048.427.048.704V60.2h-1.088zm1.056-7.2c0 .864.229 1.616.688 2.256.469.64 1.093.96 1.872.96.736 0 1.355-.288 1.856-.864.501-.587.752-1.376.752-2.368 0-.97-.24-1.75-.72-2.336-.469-.597-1.083-.896-1.84-.896-.736 0-1.355.272-1.856.816-.501.544-.752 1.355-.752 2.432zm8.366 4v-8.048h1.056v5.28c0 .736-.016 1.136-.048 1.2h.032c.042-.075.32-.475.832-1.2l3.952-5.28h1.04V57h-1.072v-5.776c.01-.181.021-.336.032-.464l.016-.224h-.032c0 .021-.048.096-.144.224a9.004 9.004 0 01-.352.48 9.38 9.38 0 00-.32.464L158.055 57h-1.04zm9.453 0v-8.048h1.088v3.44h4.704v-3.44h1.088V57h-1.088v-3.648h-4.704V57h-1.088zm9.469 0v-8.048h4.8v.944h-3.712V57h-1.088zm5.549-4.064c0-1.184.411-2.176 1.232-2.976.822-.8 1.824-1.2 3.008-1.2s2.187.4 3.008 1.2c.832.8 1.248 1.792 1.248 2.976 0 1.205-.416 2.219-1.248 3.04-.821.81-1.824 1.216-3.008 1.216s-2.186-.405-3.008-1.216c-.821-.821-1.232-1.835-1.232-3.04zm1.12 0c0 .939.299 1.717.896 2.336a3 3 0 002.224.928 3 3 0 002.224-.928c.608-.619.912-1.397.912-2.336 0-.907-.304-1.664-.912-2.272a3 3 0 00-2.224-.928 3 3 0 00-2.224.928c-.597.608-.896 1.365-.896 2.272zM192.015 57v-8.048h2.912c.832 0 1.482.181 1.952.544.469.352.704.853.704 1.504 0 .885-.406 1.477-1.216 1.776v.032c.512.107.912.336 1.2.688.288.352.432.768.432 1.248 0 .693-.262 1.243-.784 1.648-.512.405-1.222.608-2.128.608h-3.072zm1.088-4.56h1.712c.533 0 .938-.117 1.216-.352.288-.245.432-.587.432-1.024 0-.853-.571-1.28-1.712-1.28h-1.648v2.656zm0 3.712h1.84c.65 0 1.136-.123 1.456-.368.32-.256.48-.608.48-1.056 0-.47-.171-.827-.512-1.072-.331-.256-.811-.384-1.44-.384h-1.824v2.88zm6.255-1.312c0-1.867 1.632-2.8 4.896-2.8h.48v-.224c0-1.387-.662-2.08-1.984-2.08-.822 0-1.584.256-2.288.768l-.496-.832c.32-.277.741-.496 1.264-.656a5.067 5.067 0 011.584-.256c.97 0 1.712.267 2.224.8.522.523.784 1.285.784 2.288V57h-1.04v-.944l.048-.672h-.032a3.128 3.128 0 01-1.072 1.296c-.48.341-1.03.512-1.648.512-.736 0-1.376-.208-1.92-.624-.534-.416-.8-.992-.8-1.728zm1.104-.096c0 .405.16.763.48 1.072.32.31.762.464 1.328.464.736 0 1.328-.31 1.776-.928a3.412 3.412 0 00.688-2.08v-.368h-.464c-.342 0-.64.005-.896.016-.246.01-.571.053-.976.128-.395.064-.72.155-.976.272-.256.117-.48.299-.672.544a1.385 1.385 0 00-.288.88zM207.511 57l1.936-2.768.368-.48v-.032a2.376 2.376 0 01-1.312-.768c-.362-.416-.544-.933-.544-1.552 0-.79.256-1.392.768-1.808.523-.427 1.216-.64 2.08-.64h2.832V57h-1.088v-3.088h-1.664L208.775 57h-1.264zm3.424-3.936h1.616v-3.28h-1.536c-1.29 0-1.936.539-1.936 1.616 0 .523.171.933.512 1.232.352.288.8.432 1.344.432zM220.249 57v-8.048h1.088v3.408h1.28l2.416-3.408h1.28l-2.8 3.824v.032l3.12 4.192h-1.328l-2.672-3.68h-1.296V57h-1.088zm7.034-4.064c0-1.184.411-2.176 1.232-2.976.822-.8 1.824-1.2 3.008-1.2s2.187.4 3.008 1.2c.832.8 1.248 1.792 1.248 2.976 0 1.205-.416 2.219-1.248 3.04-.821.81-1.824 1.216-3.008 1.216s-2.186-.405-3.008-1.216c-.821-.821-1.232-1.835-1.232-3.04zm1.12 0c0 .939.299 1.717.896 2.336a3 3 0 002.224.928 3 3 0 002.224-.928c.608-.619.912-1.397.912-2.336 0-.907-.304-1.664-.912-2.272a3 3 0 00-2.224-.928 3 3 0 00-2.224.928c-.597.608-.896 1.365-.896 2.272zM237.508 57l.656-8.048h1.152l2.416 4.96.496 1.136h.032c.17-.416.336-.795.496-1.136l2.432-4.96h1.136l.672 8.048h-1.072l-.4-5.2v-1.392h-.032a9.28 9.28 0 01-.512 1.168l-2.24 4.496h-.992l-2.224-4.464-.528-1.2h-.032c.021.64.021 1.104 0 1.392l-.4 5.2h-1.056zm11.772 0v-8.048h6.736V57h-1.088v-7.088h-4.56V57h-1.088zm8.624-2.16c0-1.867 1.633-2.8 4.897-2.8h.48v-.224c0-1.387-.662-2.08-1.985-2.08-.821 0-1.584.256-2.288.768l-.496-.832c.32-.277.742-.496 1.265-.656a5.067 5.067 0 011.584-.256c.97 0 1.712.267 2.224.8.522.523.783 1.285.783 2.288V57h-1.039v-.944l.047-.672h-.032a3.126 3.126 0 01-1.071 1.296c-.48.341-1.03.512-1.649.512-.736 0-1.376-.208-1.92-.624-.533-.416-.8-.992-.8-1.728zm1.104-.096c0 .405.16.763.48 1.072.32.31.763.464 1.328.464.736 0 1.328-.31 1.776-.928a3.406 3.406 0 00.689-2.08v-.368h-.465c-.341 0-.639.005-.895.016-.246.01-.571.053-.976.128-.395.064-.72.155-.976.272a1.81 1.81 0 00-.673.544 1.385 1.385 0 00-.288.88zM266.874 57v-8.048h1.088v3.44h4.704v-3.44h1.088V57h-1.088v-3.648h-4.704V57h-1.088zm9.469 0v-8.048h1.056v5.28c0 .736-.016 1.136-.048 1.2h.032c.043-.075.32-.475.832-1.2l3.952-5.28h1.04V57h-1.072v-5.776c.011-.181.021-.336.032-.464.011-.139.016-.213.016-.224h-.032c0 .021-.048.096-.144.224a8.475 8.475 0 01-.352.48c-.139.192-.245.347-.32.464L277.383 57h-1.04zm8.637 0l1.936-2.768.368-.48v-.032a2.376 2.376 0 01-1.312-.768c-.363-.416-.544-.933-.544-1.552 0-.79.256-1.392.768-1.808.523-.427 1.216-.64 2.08-.64h2.832V57h-1.088v-3.088h-1.664L286.244 57h-1.264zm3.424-3.936h1.616v-3.28h-1.536c-1.291 0-1.936.539-1.936 1.616 0 .523.171.933.512 1.232.352.288.8.432 1.344.432z" fill="#323232"/></svg>