<svg width="28" height="26" fill="none" xmlns="http://www.w3.org/2000/svg"><path fill-rule="evenodd" clip-rule="evenodd" d="M23.293 12.614c0 5.92-4.79 10.72-10.7 10.72-5.91 0-10.701-4.8-10.701-10.72 0-5.92 4.79-10.72 10.7-10.72 5.91 0 10.701 4.8 10.701 10.72zm-1.827 7.474a11.559 11.559 0 01-8.874 4.14C6.19 24.228 1 19.028 1 12.614 1 6.2 6.19 1 12.592 1c6.403 0 11.593 5.2 11.593 11.614 0 2.523-.803 4.858-2.167 6.763l4.851 4.86a.447.447 0 01-.63.632l-4.773-4.781z" fill="#000"/><path d="M21.466 20.088l.177-.177-.193-.193-.175.209.191.16zm.552-.711l-.203-.146-.124.173.15.15.177-.177zm4.851 4.86l-.177.177.177-.177zm0 .632l.177.177-.177-.177zm-.63 0l-.177.177.177-.177zm-13.647-1.284c6.049 0 10.951-4.912 10.951-10.97h-.5c0 5.782-4.68 10.47-10.45 10.47v.5zm-10.95-10.97c0 6.058 4.902 10.97 10.95 10.97v-.5c-5.77 0-10.45-4.688-10.45-10.47h-.5zm10.95-10.972c-6.048 0-10.95 4.913-10.95 10.971h.5c0-5.783 4.68-10.47 10.45-10.47v-.5zm10.951 10.971c0-6.058-4.902-10.97-10.95-10.97v.5c5.77 0 10.45 4.687 10.45 10.47h.5zm-10.95 11.864c3.638 0 6.893-1.644 9.065-4.23l-.383-.321a11.31 11.31 0 01-8.682 4.051v.5zM.75 12.614c0 6.552 5.302 11.864 11.842 11.864v-.5c-6.263 0-11.342-5.087-11.342-11.364h-.5zM12.592.75C6.052.75.75 6.062.75 12.614h.5C1.25 6.337 6.329 1.25 12.592 1.25v-.5zm11.843 11.864C24.435 6.062 19.133.75 12.593.75v.5c6.263 0 11.342 5.087 11.342 11.364h.5zm-2.214 6.909a11.825 11.825 0 002.214-6.909h-.5c0 2.47-.786 4.754-2.12 6.617l.406.292zm-.38.03l4.851 4.861.354-.353-4.851-4.86-.354.353zm4.851 4.861a.197.197 0 010 .279l.354.353a.697.697 0 000-.985l-.354.353zm0 .279a.195.195 0 01-.276 0l-.354.353a.695.695 0 00.984 0l-.354-.353zm-.276 0l-4.773-4.782-.354.353 4.773 4.782.354-.353z" fill="#000"/></svg>